<svg width="250" height="250" viewBox="0 0 250 250" fill="none" xmlns="http://www.w3.org/2000/svg">
<path d="M68.0149 42.7395C70.8282 59.9374 81.1811 98.0183 100.086 112.759L115.278 109.074C107.479 69.0195 105.651 56.7435 99.5238 50.6167C93.397 45.3652 82.6515 42.9701 68.0149 42.7395Z" fill="#4CD482"/>
<path d="M68.0149 42.7395C70.8282 59.9374 81.1811 98.0183 100.086 112.759L115.278 109.074C107.479 69.0195 105.651 56.7435 99.5238 50.6167C93.397 45.3652 82.6515 42.9701 68.0149 42.7395Z" fill="url(#paint0_linear_31_34)" fill-opacity="0.2"/>
<path d="M68.0149 42.7395C70.8282 59.9374 81.1811 98.0183 100.086 112.759L115.278 109.074C107.479 69.0195 105.651 56.7435 99.5238 50.6167C93.397 45.3652 82.6515 42.9701 68.0149 42.7395Z" fill="black" fill-opacity="0.05"/>
<path d="M41.7574 77.0756C53.9987 89.4786 84.4682 114.557 108.416 115.65L118.679 103.857C89.1509 75.6913 80.5596 66.734 72.0181 65.2791C63.9828 64.5382 53.8314 68.7988 41.7574 77.0756Z" fill="#4CD482"/>
<path d="M41.7574 77.0756C53.9987 89.4786 84.4682 114.557 108.416 115.65L118.679 103.857C89.1509 75.6913 80.5596 66.734 72.0181 65.2791C63.9828 64.5382 53.8314 68.7988 41.7574 77.0756Z" fill="url(#paint1_linear_31_34)" fill-opacity="0.2"/>
<rect x="119.358" y="9.39716" width="113.413" height="113.413" rx="15" transform="rotate(16.41 119.358 9.39716)" fill="#4E5AD2"/>
<rect x="15.5" y="126" width="97.4451" height="97.4451" rx="15" transform="rotate(-28.59 15.5 126)" fill="#515ED7"/>
<g filter="url(#filter0_b_31_34)">
<rect x="92.2353" y="226.888" width="129.279" height="129.279" rx="15" transform="rotate(-83.91 92.2353 226.888)" fill="#5562E1"/>
</g>
<rect x="188.151" y="122.914" width="30" height="30" rx="5" transform="rotate(21 188.151 122.914)" fill="#F2F3FF"/>
<defs>
<filter id="filter0_b_31_34" x="89.7407" y="95.8436" width="147.254" height="147.254" filterUnits="userSpaceOnUse" color-interpolation-filters="sRGB">
<feFlood flood-opacity="0" result="BackgroundImageFix"/>
<feGaussianBlur in="BackgroundImageFix" stdDeviation="2"/>
<feComposite in2="SourceAlpha" operator="in" result="effect1_backgroundBlur_31_34"/>
<feBlend mode="normal" in="SourceGraphic" in2="effect1_backgroundBlur_31_34" result="shape"/>
</filter>
<linearGradient id="paint0_linear_31_34" x1="91.6466" y1="42.7395" x2="91.6466" y2="112.759" gradientUnits="userSpaceOnUse">
<stop stop-opacity="0"/>
<stop offset="0.454" stop-color="#71FF7F" stop-opacity="0.5"/>
</linearGradient>
<linearGradient id="paint1_linear_31_34" x1="61.0361" y1="63.4085" x2="101.531" y2="120.531" gradientUnits="userSpaceOnUse">
<stop stop-opacity="0"/>
<stop offset="0.372925" stop-color="#71FF7F"/>
</linearGradient>
</defs>
</svg>
