<svg width="500" height="500" viewBox="0 0 500 500" fill="none" xmlns="http://www.w3.org/2000/svg">
<path d="M136.03 85.479C141.656 119.875 162.362 196.037 200.173 225.519L230.557 218.148C214.958 138.039 211.301 113.487 199.048 101.233C186.794 90.7305 165.303 85.9401 136.03 85.479Z" fill="#4CD482"/>
<path d="M136.03 85.479C141.656 119.875 162.362 196.037 200.173 225.519L230.557 218.148C214.958 138.039 211.301 113.487 199.048 101.233C186.794 90.7305 165.303 85.9401 136.03 85.479Z" fill="url(#paint0_linear_36_69)" fill-opacity="0.2"/>
<path d="M136.03 85.479C141.656 119.875 162.362 196.037 200.173 225.519L230.557 218.148C214.958 138.039 211.301 113.487 199.048 101.233C186.794 90.7305 165.303 85.9401 136.03 85.479Z" fill="black" fill-opacity="0.05"/>
<path d="M83.5149 154.151C107.997 178.957 168.936 229.115 216.833 231.299L237.357 207.714C178.302 151.382 161.119 133.468 144.036 130.558C127.966 129.076 107.663 137.598 83.5149 154.151Z" fill="#4CD482"/>
<path d="M83.5149 154.151C107.997 178.957 168.936 229.115 216.833 231.299L237.357 207.714C178.302 151.382 161.119 133.468 144.036 130.558C127.966 129.076 107.663 137.598 83.5149 154.151Z" fill="url(#paint1_linear_36_69)" fill-opacity="0.2"/>
<rect x="238.717" y="18.7943" width="226.826" height="226.826" rx="15" transform="rotate(16.41 238.717 18.7943)" fill="#4E5AD2"/>
<rect x="31" y="252.001" width="194.89" height="194.89" rx="15" transform="rotate(-28.59 31 252.001)" fill="#515ED7"/>
<rect x="184.47" y="453.775" width="258.558" height="258.558" rx="15" transform="rotate(-83.91 184.47 453.775)" fill="#5562E1"/>
<rect x="376.302" y="245.828" width="60" height="60" rx="5" transform="rotate(21 376.302 245.828)" fill="#F2F3FF"/>
<path d="M220.814 429.322L226.976 371.57L239.147 372.869L232.985 430.621L220.814 429.322ZM258.645 434.244C255.092 433.865 252.013 432.812 249.408 431.086C246.861 429.312 244.955 427.071 243.689 424.361C242.428 421.599 241.976 418.547 242.332 415.206L244.726 392.773L256.897 394.071L254.52 416.345C254.379 417.671 254.469 418.834 254.792 419.834C255.167 420.839 255.777 421.655 256.622 422.282C257.467 422.908 258.526 423.289 259.799 423.425C261.602 423.617 263.093 423.213 264.273 422.213C265.458 421.159 266.158 419.625 266.373 417.61L268.75 395.336L280.92 396.635L278.536 418.988C278.173 422.382 277.085 425.296 275.27 427.731C273.46 430.112 271.124 431.901 268.261 433.097C265.403 434.241 262.198 434.623 258.645 434.244ZM300.501 438.629C296.948 438.25 293.859 437.035 291.235 434.985C288.664 432.941 286.718 430.32 285.396 427.122C284.128 423.929 283.7 420.397 284.113 416.526C284.526 412.654 285.69 409.292 287.603 406.439C289.57 403.591 292.025 401.44 294.969 399.984C297.967 398.534 301.242 397.998 304.795 398.377C307.394 398.655 309.674 399.407 311.634 400.636C313.648 401.87 315.222 403.459 316.355 405.403C317.494 407.295 318.022 409.389 317.937 411.687L316.155 428.392C315.753 430.655 314.792 432.618 313.274 434.28C311.815 435.894 309.971 437.092 307.742 437.873C305.513 438.654 303.099 438.906 300.501 438.629ZM304.138 427.914C306.737 428.192 308.922 427.567 310.694 426.039C312.472 424.459 313.502 422.343 313.785 419.691C313.977 417.888 313.776 416.258 313.18 414.8C312.638 413.347 311.744 412.179 310.497 411.295C309.309 410.364 307.867 409.808 306.17 409.627C304.473 409.446 302.919 409.682 301.508 410.336C300.156 410.943 299.009 411.893 298.066 413.187C297.177 414.487 296.636 416.038 296.443 417.841C296.257 419.591 296.461 421.195 297.056 422.653C297.652 424.111 298.57 425.309 299.811 426.246C301.052 427.183 302.494 427.739 304.138 427.914ZM311.245 438.971L312.357 428.55L315.188 419.358L314.36 409.776L315.37 400.31L327.302 401.583L323.177 440.244L311.245 438.971ZM348.836 443.866C345.283 443.487 342.204 442.435 339.599 440.709C337.053 438.935 335.146 436.694 333.88 433.984C332.619 431.221 332.167 428.169 332.524 424.828L334.917 402.396L347.088 403.694L344.712 425.968C344.57 427.294 344.661 428.456 344.983 429.456C345.358 430.462 345.969 431.278 346.814 431.904C347.659 432.531 348.717 432.912 349.99 433.048C351.793 433.24 353.285 432.836 354.464 431.836C355.649 430.782 356.349 429.248 356.564 427.232L358.941 404.959L371.112 406.257L368.727 428.611C368.365 432.005 367.276 434.919 365.461 437.353C363.651 439.735 361.315 441.524 358.452 442.72C355.594 443.863 352.389 444.245 348.836 443.866Z" fill="white"/>
<defs>
<linearGradient id="paint0_linear_36_69" x1="183.293" y1="85.479" x2="183.293" y2="225.519" gradientUnits="userSpaceOnUse">
<stop stop-opacity="0"/>
<stop offset="0.454" stop-color="#71FF7F" stop-opacity="0.5"/>
</linearGradient>
<linearGradient id="paint1_linear_36_69" x1="122.072" y1="126.817" x2="203.062" y2="241.061" gradientUnits="userSpaceOnUse">
<stop stop-opacity="0"/>
<stop offset="0.372925" stop-color="#71FF7F"/>
</linearGradient>
</defs>
</svg>
