<svg width="73" height="81" viewBox="0 0 73 81" fill="none" xmlns="http://www.w3.org/2000/svg">
<rect x="19.1951" width="55.2025" height="67.9416" rx="4" transform="rotate(16.4109 19.1951 0)" fill="#7360C7"/>
<rect x="51.1162" y="17.6071" width="12.2034" height="12.2034" rx="2" transform="rotate(16.41 51.1162 17.6071)" fill="white"/>
<path d="M11.8911 58.5514L16.8135 41.8372L20.3359 42.8746L15.4135 59.5888L11.8911 58.5514ZM17.894 60.3193L21.1892 49.1304L24.7116 50.1678L21.4164 61.3567L17.894 60.3193ZM23.4162 48.11C22.8636 47.9473 22.4574 47.6275 22.1975 47.1507C21.9575 46.663 21.9166 46.1506 22.0748 45.6134C22.2376 45.0609 22.5497 44.6524 23.0112 44.388C23.488 44.1281 24.0027 44.0795 24.5552 44.2423C25.1078 44.405 25.5063 44.7225 25.7508 45.1948C25.9954 45.6672 26.0363 46.1796 25.8735 46.7321C25.7153 47.2693 25.4032 47.6778 24.9372 47.9575C24.4757 48.2219 23.9687 48.2728 23.4162 48.11ZM30.2753 64.2159C29.5233 63.9944 28.8778 63.6375 28.3389 63.1452C27.8046 62.6376 27.4147 62.0641 27.1693 61.4247C26.9285 60.77 26.8746 60.1036 27.0075 59.4256L28.3975 54.706C28.6532 54.0641 29.0552 53.5487 29.6034 53.1597C30.1562 52.7554 30.7901 52.5001 31.5053 52.3938C32.2205 52.2875 32.9541 52.3451 33.7061 52.5666C34.7652 52.8785 35.6268 53.4074 36.2911 54.1535C36.9707 54.9041 37.412 55.7846 37.6148 56.795C37.8329 57.81 37.777 58.8777 37.447 59.9981C37.1171 61.1186 36.5854 62.0461 35.8519 62.7809C35.1338 63.5201 34.2858 64.0209 33.3078 64.2833C32.3452 64.5503 31.3344 64.5278 30.2753 64.2159ZM30.5894 60.8557C31.0805 61.0004 31.5442 61.0118 31.9804 60.8901C32.4319 60.7729 32.8238 60.5464 33.1562 60.2106C33.4886 59.8748 33.7294 59.4537 33.8786 58.9472C34.0322 58.4254 34.0604 57.9333 33.9631 57.4709C33.8657 57.0086 33.6568 56.6135 33.3364 56.2856C33.0358 55.9469 32.64 55.7052 32.1489 55.5606C31.6577 55.4159 31.1864 55.4022 30.7349 55.5195C30.2879 55.6213 29.8982 55.8401 29.5658 56.1759C29.2487 56.5162 29.0134 56.9473 28.8597 57.4691C28.706 57.991 28.6778 58.483 28.7752 58.9454C28.8725 59.4077 29.0715 59.8082 29.3721 60.1469C29.6925 60.4748 30.0983 60.7111 30.5894 60.8557ZM23.8969 62.0872L28.8193 45.373L32.3417 46.4103L29.9076 54.6754L28.532 57.2225L28.2615 60.0951L27.3733 63.111L23.8969 62.0872ZM41.5825 67.5959C40.9225 67.4016 40.2951 67.1251 39.7002 66.7664C39.1206 66.4122 38.5998 66.0003 38.1376 65.5306C37.6954 65.0501 37.3434 64.5461 37.0817 64.0187L39.6813 62.5826C39.9322 63.0902 40.2769 63.5336 40.7156 63.913C41.1588 64.2771 41.6797 64.5472 42.2783 64.7235C42.6927 64.8456 43.0254 64.8768 43.2765 64.8173C43.5429 64.7623 43.7077 64.6274 43.771 64.4125C43.8523 64.1363 43.7752 63.8884 43.5396 63.6689C43.3239 63.4386 43.0247 63.2087 42.6419 62.9792C42.2637 62.7343 41.8647 62.4751 41.4449 62.2013C41.0251 61.9276 40.6442 61.6069 40.3021 61.2393C39.9601 60.8717 39.7218 60.4346 39.5875 59.928C39.4576 59.406 39.4922 58.8074 39.6911 58.1321C39.9035 57.4107 40.2707 56.8434 40.7928 56.43C41.3194 56.0013 41.9655 55.7329 42.7312 55.6248C43.4969 55.5167 44.3326 55.596 45.2381 55.8627C46.1897 56.143 47.0148 56.5695 47.7135 57.1422C48.432 57.7041 48.9496 58.3819 49.2663 59.1757L46.6667 60.6118C46.4357 60.0934 46.1225 59.6843 45.7272 59.3843C45.3471 59.089 44.9499 58.8802 44.5355 58.7582C44.1365 58.6407 43.8191 58.6139 43.5834 58.6779C43.3522 58.7266 43.205 58.8584 43.1417 59.0733C43.0739 59.3035 43.1501 59.5261 43.3704 59.7411C43.5906 59.956 43.8921 60.1783 44.2749 60.4078C44.6576 60.6372 45.0566 60.8965 45.4719 61.1856C45.8871 61.4747 46.2635 61.8107 46.6011 62.1937C46.9387 62.5766 47.1724 63.0291 47.3022 63.551C47.4366 64.0576 47.3998 64.6639 47.1918 65.37C46.8709 66.4597 46.2011 67.2048 45.1825 67.6054C44.1792 68.0104 42.9792 68.0073 41.5825 67.5959Z" fill="white"/>
</svg>
